<svg id="Logo" xmlns="http://www.w3.org/2000/svg" viewBox="0 0 424.95 108"><defs><style>.cls-1{fill:#0079c1;}</style></defs><path id="Logo-2" data-name="Logo" class="cls-1" d="M141.94,63.78a34.38,34.38,0,0,1,4.57,1v1.81H132.92c0-1.79.74-2.26,4.56-2.9V36.85c-3.82-.64-4.56-1.09-4.56-2.87h13.59v1.78a32.88,32.88,0,0,1-4.57,1ZM175.48,43.2c3.37-.64,4.06-1,4.06-2.78h-11v1.79a29.38,29.38,0,0,0,4,.94V61L159,42.11c-1-1.49-1.88-1.69-3.52-1.69H150c0,1.74.69,2.18,3.82,2.78V63.83c-3.37.64-4.07,1.06-4.07,2.8h11.06V64.82a29.19,29.19,0,0,0-4-.94V46.57l14.68,20.28h.94c2,0,3-1.68,3-3.67Zm31.65,0c2.88-.64,3.57-1,3.57-2.78H200v1.79a35.79,35.79,0,0,0,4,.94l-6.8,18.65-6.69-18.65a29.25,29.25,0,0,0,4-.94V40.42h-12.3c0,1.74.69,2.14,3.57,2.78l9,23.75h1.69c1.19,0,2.13-.69,2.83-2.58Zm26.93,23.43a7.68,7.68,0,0,0,.3-2.28,16.15,16.15,0,0,0-.84-4.37h-1.79a15,15,0,0,0-1.24,4.12h-8.63V54.23h6.65A2.53,2.53,0,0,0,230.64,53V51.5h-8.78V43h8.53a16.81,16.81,0,0,0,1.34,3.82h1.74a15.06,15.06,0,0,0,.84-4.46,5.59,5.59,0,0,0-.25-1.89H213.53c0,1.74.7,2.14,4,2.78V63.85c-3.27.65-4,1-4,2.78Zm5-1.51a18.9,18.9,0,0,0,8.77,2c5.76,0,9.82-2.92,9.82-7.83,0-3.87-2.33-6-6.4-7.49-1.88-.69-2.77-1-4.21-1.64-2.08-.89-3.22-2.18-3.22-4,0-2.48,2.08-3.48,4.91-3.48a16.09,16.09,0,0,1,3.86.4,21.71,21.71,0,0,0,1.34,4h1.69c.89-2.43,1.24-4.81.74-6.4a31.23,31.23,0,0,0-7.09-.69c-6.49,0-9.62,3-9.62,6.94a7.37,7.37,0,0,0,4.61,6.74c2,1,2.88,1.24,5.21,2.14s4,2.18,4,4.51c0,2.73-2.33,4-5.41,4a11.31,11.31,0,0,1-5.06-1,18.72,18.72,0,0,0-1.19-4.71H240a12.32,12.32,0,0,0-.94,6.55M274.19,43h5.95a18.89,18.89,0,0,0,1.24,4.17h1.68a15.4,15.4,0,0,0,.9-4.61,6.66,6.66,0,0,0-.25-2.09H260.2a6.85,6.85,0,0,0-.25,2.09,15.4,15.4,0,0,0,.9,4.61h1.68A19.44,19.44,0,0,0,263.77,43h6.05V63.85c-3.37.65-4.06,1-4.06,2.78h12.39V64.84a30.58,30.58,0,0,0-4-.94Zm41,.25c2.88-.64,3.57-1,3.57-2.78h-6.94c-2.13,0-2.93.7-3.77,3l-5.4,15-5.21-15.17c-.89-2.68-2.13-2.88-4.41-2.88h-6.3c0,1.74.69,2.14,3.57,2.78l-2,20.68c-2.78.6-3.58,1-3.58,2.73H295.4V64.84a31,31,0,0,0-4-.89l1.83-19.54,6.9,19H302c1.69,0,2.38-1.09,3.27-3.57L311,44.31,312.55,64a28.92,28.92,0,0,0-4,.84v1.79h11.8c0-1.74-.74-2.08-3.57-2.68l-1.59-20.73m28.63,23.41a7.68,7.68,0,0,0,.3-2.28,15.76,15.76,0,0,0-.85-4.37h-1.78a14.7,14.7,0,0,0-1.24,4.12h-8.63V54.23h6.65A2.55,2.55,0,0,0,340.44,53V51.5h-8.78V43h8.53a16.34,16.34,0,0,0,1.34,3.82h1.73a14.74,14.74,0,0,0,.85-4.46,5.59,5.59,0,0,0-.25-1.89H323.33c0,1.74.69,2.14,4,2.78V63.85c-3.28.65-4,1-4,2.78ZM373,43.2c3.38-.64,4.07-1,4.07-2.78h-11v1.79a29.19,29.19,0,0,0,4,.94V61L356.51,42.11c-1-1.49-1.88-1.69-3.52-1.69h-5.41c0,1.74.7,2.18,3.82,2.78V63.83c-3.37.64-4.06,1.06-4.06,2.8h11.05V64.82a29,29,0,0,0-4-.94V46.57l14.68,20.28h.94c2,0,3-1.68,3-3.67ZM394,43h5.95a18.89,18.89,0,0,0,1.24,4.17h1.68a15.46,15.46,0,0,0,.9-4.61,6.66,6.66,0,0,0-.25-2.09H380a6.85,6.85,0,0,0-.25,2.09,15.46,15.46,0,0,0,.9,4.61h1.68A19.44,19.44,0,0,0,383.56,43h6.05V63.83c-3.37.64-4.06,1.06-4.06,2.8h12.39V64.82a29.38,29.38,0,0,0-4-.94Zm12.41,22.17a18.9,18.9,0,0,0,8.77,2c5.76,0,9.79-3,9.79-8,0-3.87-2.3-5.82-6.36-7.36-1.89-.69-2.78-1-4.22-1.64-2.08-.89-3.22-2.18-3.22-4,0-2.48,2.08-3.48,4.91-3.48a16,16,0,0,1,3.86.4,21.71,21.71,0,0,0,1.34,4H423c.89-2.43,1.24-4.81.74-6.4A31.23,31.23,0,0,0,416.6,40c-6.49,0-9.62,3-9.62,6.94a7.37,7.37,0,0,0,4.61,6.74c2,1,2.88,1.24,5.21,2.14s4,2.18,4,4.51c0,2.73-2.33,4-5.41,4a11.31,11.31,0,0,1-5.06-1,18.72,18.72,0,0,0-1.19-4.71h-1.78a12.32,12.32,0,0,0-.94,6.55m-366.15-23a5.94,5.94,0,0,1,5.29,3s1.53,2.21,1.65,7.27c0,0,.26,6-1.24,9.33a6.66,6.66,0,0,1-6.54,3.64,6.38,6.38,0,0,1-5.29-3.55s-1.64-2.67-1.36-9.42c0,0-.09-5.11,1.39-7.27a6.66,6.66,0,0,1,6.1-3M53.13,18.42a176.2,176.2,0,0,1,7.54,16.63c1.36,3.46,1,4.17,1,4.17,0,.65-.72.75-.72.75H55.1c.48-4.71.47-5.29.47-5.29-1,1.76-1.69,1.88-1.69,1.88-1.6.84-9,.65-9,.65a2.21,2.21,0,0,1-2.39-1.78c-.14-4.21,0-7.55,0-7.55a.4.4,0,0,1,.37-.28c8.06-.28,8.2.33,8.2.33l.47-3.84a6.72,6.72,0,0,1-1.59.33c-4.5.24-7.45.09-7.45.09V18.65c-.09-2.3,1.64-2.3,1.64-2.3,5.1-.23,6,0,6,0a3.13,3.13,0,0,1,3,2.07m24.34,48s-1.06.52-3-2.55a86.47,86.47,0,0,1-6.55-12.09,7.93,7.93,0,0,0,4-1.73A5.53,5.53,0,0,0,73.7,45.4s-.17-3.53-3-4.73c0,0-1-.8-5.76-.7,0,0,.14-1.13.35-2,0,0,2.27-8.07,5.83-18,0,0,2.58,5.57,6.94,18.17a6.63,6.63,0,0,1,.42,1.78h-2s1.25.24,1.58,4c0,0,.56,9.93,0,21.31,0,0,0,1.29-.47,1.29M103,0a5,5,0,0,1,5,5V103a5,5,0,0,1-5,5H5a5,5,0,0,1-5-5V5A5,5,0,0,1,5,0H103M88.17,88.32c-.7,2.2-4.17,2-4.17,2a14.33,14.33,0,0,1-5.1,0c-1.83-.1-1.88-1.45-1.88-1.45V80.57a44.57,44.57,0,0,1,7,.07c1.36,0,1.74.42,1.74.42l.6-3.62s-.27.23-4,.14l-5.3,0V70.23c0-1.17,1.37-1.1,1.37-1.1,5.67-.14,6.89.19,6.89.19,1.31,0,1.68.68,1.68.68l.61-3c.24-.59-1.31-.52-1.31-.52h-2.2C82.46,66.69,82.5,65,82.5,65c0-4.52,0-8.39,0-11.57V41.8c.1-1.79,1.07-1.91,1.07-1.91h-2.2c8.39-25.76,9.42-26.2,9.42-26.2a26.18,26.18,0,0,1-5.62,0c1.5.56.32,3.23.32,3.23-2.67,9.19-5,15-5,15-3.47-8.53-4.36-10.78-4.36-10.78-2.62-6.79-2.44-7.64-2.44-7.64a21.72,21.72,0,0,1-5.57,0c.94.38.35,2.25.35,2.25-2.72,9.23-4.85,14.9-4.85,14.9C58.56,20.67,57,15.51,57,15.51c-.71-2.15-1.69-1.87-1.69-1.87-16,.18-19-.05-19-.05,1.73.28,1.59,4.17,1.59,4.17V35.19L27.74,18.93c-2.25-3.65-2.07-5.24-2.07-5.24H17.8c1.27.83,1.22,3.84,1.22,3.84a198.57,198.57,0,0,1-.14,20.37,2.34,2.34,0,0,1-2.34,2.25h6.23c2.48.24.84,3.76.84,3.76L19,52.1s-4.35-8.19-5.36-9.48A7.51,7.51,0,0,0,10.42,40H4.13s2.34.41,5.11,3.71,4.36,7.16,5.44,9A8.66,8.66,0,0,1,16,56.87v6.62a3.42,3.42,0,0,1-2.34,3.14l3.61,0c2.62-.14,2.71,3.84,2.71,3.84.14,10,0,18.18,0,18.18.05,3.89-1.87,4.5-1.87,4.5a80.53,80.53,0,0,1,9.37.05c4.52.46,5.16.08,5.16.08,1.1-.25,1.17-1,1.17-1l.56-3.2a3.83,3.83,0,0,1-2.53,1.57,38.12,38.12,0,0,1-5.81.06s-2-.14-1.88-1.41c0,0-.37-11.4.15-20.86a2.36,2.36,0,0,1,2.48-2.3H22.3C20,65.78,20,64.19,20,64.19V58c-.08-1.27.87-3.28,1.58-4.59.42-.78.77-1.32.77-1.32C29.14,40.2,30.12,40,30.12,40H24.83a2.45,2.45,0,0,1-2.32-2.16V19.4c11.8,17.85,13.61,21.13,13.61,21.13a9,9,0,0,0-6.61,5,18.19,18.19,0,0,0-1.41,7.87c0,.74.06,1.17.06,1.17.09,7.35,2.53,9.18,2.53,9.18,1.68,2,5.29,2.58,5.29,2.58,2,.47,1.92,3.79,1.92,3.79v9.37c0,9.94-.79,11.76-.79,11.76-.38,1.73-1.6,1.83-1.6,1.83a33.8,33.8,0,0,1,8.48.18,2.45,2.45,0,0,1-1.69-2.1c-.23-11.53,0-21,0-21,0-3,1.88-3.8,1.88-3.8,4.4-1.12,5.1-2.71,5.1-2.71C52,60.89,52.07,55.47,52,53.42c0-.61,0-.94,0-.94,0-5.7-2.72-8.71-2.72-8.71-1.88-2.35-5.67-3.47-5.67-3.47l9.66,0c2.8.28,2.76,4.6,2.76,4.6a78.66,78.66,0,0,1,.36,8.48c-.05,4.86-.41,8.76-.41,8.76-.37,4.26-2.25,3.93-2.25,3.93H51.25c1.6.47,1.36,4.41,1.36,4.41.28,9.56-.42,19.91-.42,19.91a3,3,0,0,1-1.73,2.82,37.12,37.12,0,0,1,7.63,0c-1.4-.33-1.35-3.33-1.35-3.33l-.1-8.72c5.9-.27,7.68.1,7.68.1a2.27,2.27,0,0,1,1.65.42l.74-3.83a21.88,21.88,0,0,1-4.11.19H56.69v-8c.05-.84,1.4-.8,1.4-.8,5.86-.32,7.12.11,7.12.11,1.32.09,1.41.5,1.41.5l.52-2.53c.37-1-.79-.83-.79-.83H62.83c-2.58.18-2.25-2-2.25-2V43.86a1.39,1.39,0,0,1,1.12-1.45,10.44,10.44,0,0,1,5,0,3.22,3.22,0,0,1,2.39,2.86,5.16,5.16,0,0,1-1.41,4.5A5.71,5.71,0,0,1,64,51.12c-1-.19-.51.47-.51.47q.31.87.69,1.83c2.18,5.48,5.56,12.32,5.56,12.32a1.85,1.85,0,0,0,1.71.84c1.15.11,1.08,1.73,1.08,1.73.18,11.06-.19,21-.19,21-.23,3.52-1.59,3.85-1.59,3.85,6.14-.38,7.82,0,7.82,0,7.68.47,8,.09,8,.09.84.06,1-1.68,1-1.68ZM99.48,66.54s-2.22-.8-11.78-15.94c0,0,3.84-4.53,7.5-8.05a13.81,13.81,0,0,1,3.19-2.66H94.64a3.22,3.22,0,0,0-2.25.84s-3.51,3.88-9.47,10.91c0,0,.47,0,9.38,13.82,0,0,.84,1.22,1.87,1.08Z"/></svg>